<svg xmlns="http://www.w3.org/2000/svg" xmlns:xlink="http://www.w3.org/1999/xlink" width="1000" zoomAndPan="magnify" viewBox="0 0 750 818.24998" height="1091" preserveAspectRatio="xMidYMid meet" version="1.0"><defs><clipPath id="a60fca7a8a"><path d="M 0.34375 0 L 749.65625 0 L 749.65625 817.5 L 0.34375 817.5 Z M 0.34375 0 " clip-rule="nonzero"/></clipPath><clipPath id="beff8db717"><path d="M 88.011719 561 L 661.984375 561 L 661.984375 695.734375 L 88.011719 695.734375 Z M 88.011719 561 " clip-rule="nonzero"/></clipPath><clipPath id="727be62111"><path d="M 88.011719 306 L 661.984375 306 L 661.984375 583 L 88.011719 583 Z M 88.011719 306 " clip-rule="nonzero"/></clipPath><clipPath id="30a77e248c"><path d="M 497 121.761719 L 580 121.761719 L 580 324 L 497 324 Z M 497 121.761719 " clip-rule="nonzero"/></clipPath><clipPath id="c9cb5232d3"><path d="M 169 121.761719 L 252 121.761719 L 252 324 L 169 324 Z M 169 121.761719 " clip-rule="nonzero"/></clipPath></defs><g clip-path="url(#a60fca7a8a)"><path fill="#ffffff" d="M 0.34375 0 L 749.65625 0 L 749.65625 824.992188 L 0.34375 824.992188 Z M 0.34375 0 " fill-opacity="1" fill-rule="nonzero"/><path fill="#ffffff" d="M 0.34375 0 L 749.65625 0 L 749.65625 817.5 L 0.34375 817.5 Z M 0.34375 0 " fill-opacity="1" fill-rule="nonzero"/><path fill="#ffffff" d="M 0.34375 0 L 749.65625 0 L 749.65625 817.5 L 0.34375 817.5 Z M 0.34375 0 " fill-opacity="1" fill-rule="nonzero"/></g><g clip-path="url(#beff8db717)"><path fill="#063d0b" d="M 661.105469 571.941406 C 661.105469 566.28125 656.527344 561.691406 650.859375 561.691406 L 98.269531 561.691406 C 92.601562 561.691406 88.027344 566.28125 88.027344 571.941406 L 88.027344 664.988281 C 88.027344 681.972656 101.785156 695.742188 118.773438 695.742188 L 630.359375 695.742188 C 647.347656 695.742188 661.105469 681.972656 661.105469 664.988281 C 661.105469 632.285156 661.105469 571.941406 661.105469 571.941406 Z M 640.617188 582.191406 L 640.617188 664.988281 C 640.617188 670.652344 636.023438 675.238281 630.359375 675.238281 C 630.359375 675.238281 118.773438 675.238281 118.773438 675.238281 C 113.105469 675.238281 108.515625 670.652344 108.515625 664.988281 L 108.515625 582.191406 Z M 640.617188 582.191406 " fill-opacity="1" fill-rule="evenodd"/></g><g clip-path="url(#727be62111)"><path fill="#063d0b" d="M 650.859375 583 C 653.730469 583 656.476562 581.792969 658.425781 579.667969 C 660.363281 577.542969 661.328125 574.707031 661.066406 571.84375 C 661.066406 571.84375 645.242188 393.320312 640.007812 334.296875 C 638.609375 318.425781 625.316406 306.261719 609.386719 306.261719 C 529.660156 306.261719 219.472656 306.261719 139.746094 306.261719 C 123.8125 306.261719 110.519531 318.425781 109.125 334.296875 C 103.890625 393.320312 88.0625 571.84375 88.0625 571.84375 C 87.800781 574.707031 88.769531 577.542969 90.703125 579.667969 C 92.652344 581.792969 95.398438 583 98.269531 583 Z M 639.65625 562.5 L 109.476562 562.5 C 109.476562 562.5 129.539062 336.105469 129.539062 336.105469 C 130.015625 330.816406 134.433594 326.761719 139.746094 326.761719 L 609.386719 326.761719 C 614.695312 326.761719 619.117188 330.816406 619.59375 336.105469 Z M 639.65625 562.5 " fill-opacity="1" fill-rule="evenodd"/></g><path fill="#063d0b" d="M 559.847656 508.59375 L 550.492188 435.589844 C 548.527344 420.246094 535.46875 408.753906 519.996094 408.753906 L 229.976562 408.753906 C 214.5 408.753906 201.445312 420.246094 199.480469 435.589844 L 190.121094 508.59375 C 188.996094 517.359375 191.703125 526.183594 197.535156 532.816406 C 203.378906 539.453125 211.789062 543.25 220.621094 543.25 C 285.023438 543.25 464.949219 543.25 529.351562 543.25 C 538.183594 543.25 546.59375 539.453125 552.4375 532.816406 C 558.269531 526.183594 560.972656 517.359375 559.847656 508.59375 Z M 539.515625 511.203125 C 539.890625 514.125 538.992188 517.0625 537.050781 519.277344 C 535.09375 521.488281 532.292969 522.757812 529.351562 522.757812 L 220.621094 522.757812 C 217.679688 522.757812 214.875 521.488281 212.921875 519.277344 C 210.976562 517.0625 210.078125 514.125 210.453125 511.203125 L 219.8125 438.199219 C 220.464844 433.082031 224.816406 429.246094 229.976562 429.246094 C 229.976562 429.246094 519.996094 429.246094 519.996094 429.246094 C 525.15625 429.246094 529.507812 433.082031 530.160156 438.199219 Z M 539.515625 511.203125 " fill-opacity="1" fill-rule="evenodd"/><path fill="#063d0b" d="M 364.742188 359.222656 L 364.742188 375.238281 C 364.742188 380.898438 369.332031 385.488281 374.988281 385.488281 C 380.648438 385.488281 385.238281 380.898438 385.238281 375.238281 L 385.238281 359.222656 C 385.238281 353.5625 380.648438 348.972656 374.988281 348.972656 C 369.332031 348.972656 364.742188 353.5625 364.742188 359.222656 Z M 364.742188 359.222656 " fill-opacity="1" fill-rule="evenodd"/><path fill="#063d0b" d="M 419.402344 359.222656 L 419.402344 375.238281 C 419.402344 380.898438 423.992188 385.488281 429.652344 385.488281 C 435.308594 385.488281 439.898438 380.898438 439.898438 375.238281 L 439.898438 359.222656 C 439.898438 353.5625 435.308594 348.972656 429.652344 348.972656 C 423.992188 348.972656 419.402344 353.5625 419.402344 359.222656 Z M 419.402344 359.222656 " fill-opacity="1" fill-rule="evenodd"/><path fill="#063d0b" d="M 200.441406 359.222656 L 200.441406 375.238281 C 200.441406 380.898438 205.03125 385.488281 210.691406 385.488281 C 216.347656 385.488281 220.941406 380.898438 220.941406 375.238281 L 220.941406 359.222656 C 220.941406 353.5625 216.347656 348.972656 210.691406 348.972656 C 205.03125 348.972656 200.441406 353.5625 200.441406 359.222656 Z M 200.441406 359.222656 " fill-opacity="1" fill-rule="evenodd"/><path fill="#063d0b" d="M 474.0625 359.222656 L 474.0625 375.238281 C 474.0625 380.898438 478.652344 385.488281 484.3125 385.488281 C 489.96875 385.488281 494.5625 380.898438 494.5625 375.238281 L 494.5625 359.222656 C 494.5625 353.5625 489.96875 348.972656 484.3125 348.972656 C 478.652344 348.972656 474.0625 353.5625 474.0625 359.222656 Z M 474.0625 359.222656 " fill-opacity="1" fill-rule="evenodd"/><path fill="#063d0b" d="M 255.101562 359.222656 L 255.101562 375.238281 C 255.101562 380.898438 259.695312 385.488281 265.351562 385.488281 C 271.007812 385.488281 275.601562 380.898438 275.601562 375.238281 L 275.601562 359.222656 C 275.601562 353.5625 271.007812 348.972656 265.351562 348.972656 C 259.695312 348.972656 255.101562 353.5625 255.101562 359.222656 Z M 255.101562 359.222656 " fill-opacity="1" fill-rule="evenodd"/><path fill="#063d0b" d="M 528.734375 359.222656 L 528.734375 375.238281 C 528.734375 380.898438 533.324219 385.488281 538.984375 385.488281 C 544.640625 385.488281 549.234375 380.898438 549.234375 375.238281 L 549.234375 359.222656 C 549.234375 353.5625 544.640625 348.972656 538.984375 348.972656 C 533.324219 348.972656 528.734375 353.5625 528.734375 359.222656 Z M 528.734375 359.222656 " fill-opacity="1" fill-rule="evenodd"/><path fill="#063d0b" d="M 309.773438 359.222656 L 309.773438 375.238281 C 309.773438 380.898438 314.363281 385.488281 320.019531 385.488281 C 325.679688 385.488281 330.269531 380.898438 330.269531 375.238281 L 330.269531 359.222656 C 330.269531 353.5625 325.679688 348.972656 320.019531 348.972656 C 314.363281 348.972656 309.773438 353.5625 309.773438 359.222656 Z M 309.773438 359.222656 " fill-opacity="1" fill-rule="evenodd"/><path fill="#063d0b" d="M 241.753906 623.988281 C 241.753906 607.011719 227.988281 593.238281 211.003906 593.238281 L 190.507812 593.238281 C 173.523438 593.238281 159.757812 607.011719 159.757812 623.988281 C 159.757812 627.359375 159.757812 630.867188 159.757812 634.238281 C 159.757812 651.214844 173.523438 664.988281 190.507812 664.988281 L 211.003906 664.988281 C 227.988281 664.988281 241.753906 651.214844 241.753906 634.238281 Z M 221.253906 623.988281 L 221.253906 634.238281 C 221.253906 639.902344 216.664062 644.488281 211.003906 644.488281 C 211.003906 644.488281 190.507812 644.488281 190.507812 644.488281 C 184.847656 644.488281 180.257812 639.902344 180.257812 634.238281 L 180.257812 623.988281 C 180.257812 618.324219 184.847656 613.738281 190.507812 613.738281 C 190.507812 613.738281 211.003906 613.738281 211.003906 613.738281 C 216.664062 613.738281 221.253906 618.324219 221.253906 623.988281 Z M 221.253906 623.988281 " fill-opacity="1" fill-rule="evenodd"/><path fill="#063d0b" d="M 415.996094 623.988281 C 415.996094 607.011719 402.230469 593.238281 385.246094 593.238281 L 364.75 593.238281 C 347.765625 593.238281 334 607.011719 334 623.988281 C 334 627.359375 334 630.867188 334 634.238281 C 334 651.214844 347.765625 664.988281 364.75 664.988281 L 385.246094 664.988281 C 402.230469 664.988281 415.996094 651.214844 415.996094 634.238281 Z M 395.496094 623.988281 L 395.496094 634.238281 C 395.496094 639.902344 390.90625 644.488281 385.246094 644.488281 C 385.246094 644.488281 364.75 644.488281 364.75 644.488281 C 359.089844 644.488281 354.5 639.902344 354.5 634.238281 L 354.5 623.988281 C 354.5 618.324219 359.089844 613.738281 364.75 613.738281 C 364.75 613.738281 385.246094 613.738281 385.246094 613.738281 C 390.90625 613.738281 395.496094 618.324219 395.496094 623.988281 Z M 395.496094 623.988281 " fill-opacity="1" fill-rule="evenodd"/><path fill="#063d0b" d="M 590.238281 623.988281 C 590.238281 607.011719 576.472656 593.238281 559.488281 593.238281 L 538.992188 593.238281 C 522.007812 593.238281 508.242188 607.011719 508.242188 623.988281 C 508.242188 627.359375 508.242188 630.867188 508.242188 634.238281 C 508.242188 651.214844 522.007812 664.988281 538.992188 664.988281 L 559.488281 664.988281 C 576.472656 664.988281 590.238281 651.214844 590.238281 634.238281 Z M 569.738281 623.988281 L 569.738281 634.238281 C 569.738281 639.902344 565.148438 644.488281 559.488281 644.488281 C 559.488281 644.488281 538.992188 644.488281 538.992188 644.488281 C 533.332031 644.488281 528.742188 639.902344 528.742188 634.238281 L 528.742188 623.988281 C 528.742188 618.324219 533.332031 613.738281 538.992188 613.738281 C 538.992188 613.738281 559.488281 613.738281 559.488281 613.738281 C 565.148438 613.738281 569.738281 618.324219 569.738281 623.988281 Z M 569.738281 623.988281 " fill-opacity="1" fill-rule="evenodd"/><g clip-path="url(#30a77e248c)"><path fill="#063d0b" d="M 579.988281 148.414062 C 579.988281 133.703125 568.058594 121.773438 553.332031 121.773438 C 544.457031 121.773438 533.519531 121.773438 524.640625 121.773438 C 509.917969 121.773438 497.984375 133.703125 497.984375 148.414062 L 497.984375 312.902344 C 497.984375 318.5625 502.582031 323.148438 508.238281 323.148438 L 569.734375 323.148438 C 575.394531 323.148438 579.988281 318.5625 579.988281 312.902344 Z M 559.484375 148.414062 L 559.484375 302.65625 C 559.484375 302.65625 518.492188 302.65625 518.492188 302.65625 C 518.492188 302.65625 518.492188 148.414062 518.492188 148.414062 C 518.492188 145.023438 521.242188 142.265625 524.640625 142.265625 C 533.519531 142.265625 544.457031 142.265625 553.332031 142.265625 C 556.734375 142.265625 559.484375 145.023438 559.484375 148.414062 Z M 559.484375 148.414062 " fill-opacity="1" fill-rule="evenodd"/></g><g clip-path="url(#c9cb5232d3)"><path fill="#063d0b" d="M 251.777344 148.414062 C 251.777344 133.703125 239.847656 121.773438 225.121094 121.773438 C 216.246094 121.773438 205.308594 121.773438 196.429688 121.773438 C 181.707031 121.773438 169.773438 133.703125 169.773438 148.414062 L 169.773438 312.902344 C 169.773438 318.5625 174.371094 323.148438 180.027344 323.148438 L 241.527344 323.148438 C 247.183594 323.148438 251.777344 318.5625 251.777344 312.902344 Z M 231.273438 148.414062 L 231.273438 302.65625 C 231.273438 302.65625 190.28125 302.65625 190.28125 302.65625 C 190.28125 302.65625 190.28125 148.414062 190.28125 148.414062 C 190.28125 145.023438 193.03125 142.265625 196.429688 142.265625 C 205.308594 142.265625 216.246094 142.265625 225.121094 142.265625 C 228.523438 142.265625 231.273438 145.023438 231.273438 148.414062 Z M 231.273438 148.414062 " fill-opacity="1" fill-rule="evenodd"/></g></svg>