<svg xmlns="http://www.w3.org/2000/svg" xmlns:xlink="http://www.w3.org/1999/xlink" width="1000" zoomAndPan="magnify" viewBox="0 0 750 818.24998" height="1091" preserveAspectRatio="xMidYMid meet" version="1.0"><defs><clipPath id="b72fbc5948"><path d="M 0.34375 0 L 749.65625 0 L 749.65625 817.5 L 0.34375 817.5 Z M 0.34375 0 " clip-rule="nonzero"/></clipPath><clipPath id="279242d46d"><path d="M 75.273438 112 L 669.480469 112 L 669.480469 704 L 75.273438 704 Z M 75.273438 112 " clip-rule="nonzero"/></clipPath></defs><g clip-path="url(#b72fbc5948)"><path fill="#ffffff" d="M 0.34375 0 L 749.65625 0 L 749.65625 824.992188 L 0.34375 824.992188 Z M 0.34375 0 " fill-opacity="1" fill-rule="nonzero"/><path fill="#ffffff" d="M 0.34375 0 L 749.65625 0 L 749.65625 817.5 L 0.34375 817.5 Z M 0.34375 0 " fill-opacity="1" fill-rule="nonzero"/><path fill="#ffffff" d="M 0.34375 0 L 749.65625 0 L 749.65625 817.5 L 0.34375 817.5 Z M 0.34375 0 " fill-opacity="1" fill-rule="nonzero"/></g><g clip-path="url(#279242d46d)"><path fill="#063d0b" d="M 181.382812 242.699219 L 106.007812 242.699219 C 97.824219 242.699219 89.964844 246.03125 84.175781 251.980469 C 78.492188 257.832031 75.273438 265.761719 75.273438 274.039062 C 75.273438 298.011719 75.273438 319.382812 75.273438 365.640625 C 75.273438 371.292969 79.863281 375.882812 85.519531 375.882812 C 91.175781 375.882812 95.765625 371.292969 95.765625 365.640625 L 95.765625 274.039062 C 95.765625 271.117188 96.871094 268.320312 98.867188 266.261719 C 100.765625 264.304688 103.324219 263.191406 106.007812 263.191406 L 174.621094 263.191406 C 169.96875 280.320312 167.480469 298.359375 167.480469 316.976562 C 167.480469 330.816406 168.851562 344.339844 171.472656 357.410156 C 172.589844 362.953125 177.992188 366.550781 183.53125 365.433594 C 189.074219 364.328125 192.679688 358.929688 191.566406 353.375 C 189.855469 344.851562 188.738281 336.125 188.246094 327.21875 L 249.652344 327.21875 C 250.8125 354.164062 256.496094 379.949219 265.984375 403.8125 C 251.835938 410.992188 238.507812 419.558594 226.171875 429.332031 C 215.292969 415.195312 206.410156 399.4375 199.957031 382.480469 C 197.949219 377.195312 192.027344 374.542969 186.738281 376.550781 C 181.453125 378.566406 178.800781 384.488281 180.808594 389.777344 C 210.191406 466.972656 284.925781 521.875 372.378906 521.875 C 399.371094 521.875 425.148438 516.636719 448.761719 507.140625 C 459.929688 513.605469 472.296875 518.226562 485.449219 520.550781 C 491.023438 521.535156 496.339844 517.804688 497.324219 512.242188 C 498.308594 506.671875 494.589844 501.351562 489.015625 500.371094 C 445.8125 492.738281 412.957031 454.964844 412.957031 409.578125 C 412.957031 358.691406 454.273438 317.375 505.160156 317.375 C 556.046875 317.375 597.367188 358.691406 597.367188 409.578125 C 597.367188 456.5625 562.152344 495.390625 516.699219 501.066406 C 511.09375 501.761719 507.109375 506.894531 507.804688 512.5 C 508.5 518.113281 513.632812 522.097656 519.238281 521.402344 C 574.808594 514.457031 617.855469 467.003906 617.855469 409.578125 C 617.855469 374.757812 602.039062 343.613281 577.195312 322.925781 C 577.246094 320.949219 577.277344 318.964844 577.277344 316.976562 C 577.277344 298.371094 574.785156 280.351562 570.136719 263.199219 L 639.082031 263.199219 C 641.644531 263.28125 644.074219 264.386719 645.886719 266.261719 C 647.882812 268.320312 648.988281 271.117188 648.988281 274.039062 L 648.988281 539.800781 L 608.011719 539.800781 C 602.355469 539.800781 597.765625 544.390625 597.765625 550.046875 C 597.765625 555.703125 602.355469 560.292969 608.011719 560.292969 L 648.988281 560.292969 L 648.988281 590.421875 C 648.988281 593.34375 647.882812 596.140625 645.886719 598.199219 C 643.992188 600.15625 641.429688 601.273438 638.746094 601.273438 C 638.746094 601.273438 106.007812 601.273438 106.007812 601.273438 C 103.324219 601.273438 100.765625 600.15625 98.867188 598.199219 C 96.871094 596.140625 95.765625 593.34375 95.765625 590.421875 L 95.765625 560.292969 L 567.03125 560.292969 C 572.6875 560.292969 577.277344 555.703125 577.277344 550.046875 C 577.277344 544.390625 572.6875 539.800781 567.03125 539.800781 L 95.765625 539.800781 L 95.765625 447.597656 C 95.765625 441.941406 91.175781 437.351562 85.519531 437.351562 C 79.863281 437.351562 75.273438 441.941406 75.273438 447.597656 L 75.273438 590.421875 C 75.273438 598.699219 78.492188 606.628906 84.167969 612.480469 C 89.964844 618.433594 97.824219 621.761719 106.007812 621.761719 L 310.90625 621.761719 L 310.90625 683.230469 L 290.417969 683.230469 C 284.761719 683.230469 280.171875 687.820312 280.171875 693.476562 C 280.171875 699.132812 284.761719 703.722656 290.417969 703.722656 L 454.335938 703.722656 C 459.992188 703.722656 464.582031 699.132812 464.582031 693.476562 C 464.582031 687.820312 459.992188 683.230469 454.335938 683.230469 L 433.847656 683.230469 L 433.847656 621.761719 L 638.746094 621.761719 C 646.929688 621.761719 654.789062 618.433594 660.585938 612.480469 C 666.261719 606.628906 669.480469 598.699219 669.480469 590.421875 L 669.480469 274.039062 C 669.480469 265.761719 666.261719 257.832031 660.578125 251.980469 C 654.972656 246.214844 647.421875 242.914062 639.515625 242.710938 C 639.433594 242.710938 639.339844 242.710938 639.257812 242.710938 L 563.382812 242.710938 C 533.613281 166.28125 459.273438 112.078125 372.378906 112.078125 C 285.480469 112.078125 211.144531 166.28125 181.382812 242.699219 Z M 331.398438 621.761719 L 331.398438 683.230469 C 331.398438 683.230469 413.355469 683.230469 413.355469 683.230469 L 413.355469 621.761719 Z M 126.5 591.027344 L 136.746094 591.027344 C 142.398438 591.027344 146.988281 586.4375 146.988281 580.78125 C 146.988281 575.125 142.398438 570.539062 136.746094 570.539062 L 126.5 570.539062 C 120.84375 570.539062 116.253906 575.125 116.253906 580.78125 C 116.253906 586.4375 120.84375 591.027344 126.5 591.027344 Z M 423.046875 486.722656 C 419.269531 490.359375 415.375 493.875 411.359375 497.246094 C 417.332031 495.964844 423.191406 494.386719 428.929688 492.542969 C 426.902344 490.667969 424.933594 488.730469 423.046875 486.722656 Z M 274.382812 422.527344 C 262.039062 428.871094 250.382812 436.359375 239.574219 444.863281 C 264.519531 470.761719 296.964844 489.398438 333.394531 497.246094 C 309.003906 476.703125 288.828125 451.296875 274.382812 422.527344 Z M 362.132812 399.171875 C 337.839844 400.316406 314.597656 405.492188 293.0625 414.054688 C 309.207031 445.90625 333.058594 473.210938 362.132812 493.503906 Z M 382.621094 399.171875 L 382.621094 493.503906 C 392.507812 486.609375 401.78125 478.90625 410.355469 470.484375 C 399.035156 452.914062 392.46875 432.003906 392.46875 409.578125 C 392.46875 406.320312 392.609375 403.09375 392.878906 399.898438 C 389.488281 399.582031 386.066406 399.335938 382.621094 399.171875 Z M 541.417969 447.597656 C 532.9375 447.597656 526.050781 454.484375 526.050781 462.964844 C 526.050781 471.449219 532.9375 478.332031 541.417969 478.332031 C 549.902344 478.332031 556.785156 471.449219 556.785156 462.964844 C 556.785156 454.484375 549.902344 447.597656 541.417969 447.597656 Z M 469.703125 447.597656 C 461.222656 447.597656 454.335938 454.484375 454.335938 462.964844 C 454.335938 471.449219 461.222656 478.332031 469.703125 478.332031 C 478.1875 478.332031 485.070312 471.449219 485.070312 462.964844 C 485.070312 454.484375 478.1875 447.597656 469.703125 447.597656 Z M 469.703125 468.089844 C 466.875 468.089844 464.582031 465.792969 464.582031 462.964844 C 464.582031 460.136719 466.875 457.84375 469.703125 457.84375 C 472.53125 457.84375 474.828125 460.136719 474.828125 462.964844 C 474.828125 465.792969 472.53125 468.089844 469.703125 468.089844 Z M 541.417969 468.089844 C 538.589844 468.089844 536.296875 465.792969 536.296875 462.964844 C 536.296875 460.136719 538.589844 457.84375 541.417969 457.84375 C 544.246094 457.84375 546.539062 460.136719 546.539062 462.964844 C 546.539062 465.792969 544.246094 468.089844 541.417969 468.089844 Z M 553.488281 366.191406 C 554.757812 362.175781 553.4375 357.78125 550.15625 355.128906 C 546.867188 352.484375 542.300781 352.117188 538.632812 354.207031 C 538.632812 354.207031 499.761719 376.765625 488.484375 390.730469 C 479.609375 401.730469 481.320312 417.867188 492.324219 426.75 C 503.316406 435.632812 519.464844 433.910156 528.347656 422.917969 C 539.617188 408.945312 553.488281 366.191406 553.488281 366.191406 Z M 75.273438 396.375 L 75.273438 416.863281 C 75.273438 422.519531 79.863281 427.109375 85.519531 427.109375 C 91.175781 427.109375 95.765625 422.519531 95.765625 416.863281 L 95.765625 396.375 C 95.765625 390.71875 91.175781 386.128906 85.519531 386.128906 C 79.863281 386.128906 75.273438 390.71875 75.273438 396.375 Z M 456.898438 406.617188 C 456.898438 379.757812 478.699219 357.953125 505.5625 357.953125 C 511.214844 357.953125 515.804688 353.367188 515.804688 347.710938 C 515.804688 342.054688 511.214844 337.464844 505.5625 337.464844 C 467.398438 337.464844 436.40625 368.457031 436.40625 406.617188 C 436.40625 412.273438 440.996094 416.863281 446.652344 416.863281 C 452.308594 416.863281 456.898438 412.273438 456.898438 406.617188 Z M 524.21875 387.253906 C 520.558594 396.230469 516.339844 405.152344 512.40625 410.039062 C 510.621094 412.242188 507.394531 412.582031 505.191406 410.808594 C 503 409.035156 502.652344 405.808594 504.425781 403.605469 C 508.367188 398.71875 516.207031 392.714844 524.21875 387.253906 Z M 362.132812 378.660156 L 362.132812 327.21875 L 270.164062 327.21875 C 271.289062 351.152344 276.339844 374.070312 284.671875 395.339844 C 308.777344 385.648438 334.859375 379.839844 362.132812 378.660156 Z M 428.273438 327.21875 L 382.621094 327.21875 L 382.621094 378.660156 C 387.285156 378.863281 391.902344 379.203125 396.492188 379.664062 C 402.085938 359.296875 413.265625 341.234375 428.273438 327.21875 Z M 518.574219 204.621094 C 506.246094 214.394531 492.917969 222.957031 478.769531 230.140625 C 487.152344 251.234375 492.570312 273.8125 494.507812 297.375 C 498.011719 297.050781 501.566406 296.886719 505.160156 296.886719 C 523.695312 296.886719 541.191406 301.363281 556.632812 309.3125 C 555.023438 270.003906 541.082031 233.847656 518.574219 204.621094 Z M 226.183594 204.621094 C 204.167969 233.214844 190.34375 268.425781 188.246094 306.730469 L 249.652344 306.730469 C 250.8125 279.785156 256.496094 254.011719 265.984375 230.140625 C 251.824219 222.957031 238.507812 214.394531 226.183594 204.621094 Z M 460.085938 238.613281 C 435.976562 248.304688 409.90625 254.113281 382.621094 255.289062 L 382.621094 306.730469 L 459.058594 306.730469 C 463.945312 304.527344 469.027344 302.671875 474.253906 301.175781 C 472.65625 279.253906 467.769531 258.230469 460.085938 238.613281 Z M 284.671875 238.613281 C 276.332031 259.890625 271.289062 282.796875 270.164062 306.730469 L 362.132812 306.730469 L 362.132812 255.289062 C 334.859375 254.113281 308.777344 248.304688 284.671875 238.613281 Z M 362.132812 140.445312 C 333.046875 160.742188 309.207031 188.054688 293.0625 219.894531 C 314.597656 228.460938 337.839844 233.632812 362.132812 234.78125 Z M 382.621094 140.445312 L 382.621094 234.78125 C 406.914062 233.632812 430.160156 228.460938 451.695312 219.894531 C 435.546875 188.042969 411.699219 160.742188 382.621094 140.445312 Z M 333.394531 136.707031 C 296.964844 144.554688 264.519531 163.1875 239.574219 189.089844 C 250.378906 197.589844 262.039062 205.089844 274.382812 211.421875 C 288.828125 182.652344 309.003906 157.246094 333.394531 136.707031 Z M 411.359375 136.707031 C 435.753906 157.246094 455.925781 182.652344 470.371094 211.421875 C 482.714844 205.089844 494.363281 197.589844 505.183594 189.089844 C 480.234375 163.1875 447.800781 144.554688 411.359375 136.707031 Z M 411.359375 136.707031 " fill-opacity="1" fill-rule="evenodd"/></g></svg>