<svg xmlns="http://www.w3.org/2000/svg" xmlns:xlink="http://www.w3.org/1999/xlink" width="1000" zoomAndPan="magnify" viewBox="0 0 750 818.24998" height="1091" preserveAspectRatio="xMidYMid meet" version="1.0"><defs><clipPath id="db4325fbc4"><path d="M 0.34375 0 L 749.65625 0 L 749.65625 817.5 L 0.34375 817.5 Z M 0.34375 0 " clip-rule="nonzero"/></clipPath><clipPath id="587c6dc4cc"><path d="M 75.273438 118.75 L 655.242188 118.75 L 655.242188 698.71875 L 75.273438 698.71875 Z M 75.273438 118.75 " clip-rule="nonzero"/></clipPath></defs><g clip-path="url(#db4325fbc4)"><path fill="#ffffff" d="M 0.34375 0 L 749.65625 0 L 749.65625 824.992188 L 0.34375 824.992188 Z M 0.34375 0 " fill-opacity="1" fill-rule="nonzero"/><path fill="#ffffff" d="M 0.34375 0 L 749.65625 0 L 749.65625 817.5 L 0.34375 817.5 Z M 0.34375 0 " fill-opacity="1" fill-rule="nonzero"/><path fill="#ffffff" d="M 0.34375 0 L 749.65625 0 L 749.65625 817.5 L 0.34375 817.5 Z M 0.34375 0 " fill-opacity="1" fill-rule="nonzero"/></g><g clip-path="url(#587c6dc4cc)"><path fill="#063d0b" d="M 105.351562 237.503906 C 105.304688 237.90625 105.273438 238.324219 105.273438 238.746094 L 105.273438 579.988281 C 88.035156 584.4375 75.273438 600.105469 75.273438 618.722656 C 75.273438 640.804688 93.195312 658.722656 115.273438 658.722656 C 133.890625 658.722656 149.5625 645.964844 154.011719 628.722656 L 175.269531 628.722656 L 175.269531 668.722656 C 175.269531 685.289062 188.699219 698.71875 205.269531 698.71875 L 325.261719 698.71875 C 330.78125 698.71875 335.261719 694.242188 335.261719 688.71875 C 335.261719 683.199219 330.78125 678.722656 325.261719 678.722656 L 293.933594 678.722656 L 293.933594 558.726562 L 535.25 558.726562 C 537.898438 558.726562 540.449219 559.777344 542.320312 561.65625 C 544.199219 563.527344 545.25 566.078125 545.25 568.726562 C 545.25 568.726562 545.25 668.722656 545.25 668.722656 C 545.25 674.242188 540.769531 678.722656 535.25 678.722656 L 405.257812 678.722656 C 399.738281 678.722656 395.257812 683.199219 395.257812 688.71875 C 395.257812 694.242188 399.738281 698.71875 405.257812 698.71875 L 535.25 698.71875 C 551.820312 698.71875 565.246094 685.289062 565.246094 668.722656 L 565.246094 628.722656 L 576.507812 628.722656 C 580.957031 645.964844 596.625 658.722656 615.246094 658.722656 C 637.324219 658.722656 655.242188 640.804688 655.242188 618.722656 C 655.242188 600.105469 642.484375 584.4375 625.246094 579.988281 L 625.246094 237.484375 C 642.484375 233.035156 655.242188 217.367188 655.242188 198.746094 C 655.242188 176.667969 637.324219 158.75 615.246094 158.75 C 596.625 158.75 580.957031 171.507812 576.507812 188.746094 L 565.246094 188.746094 L 565.246094 148.75 C 565.246094 132.179688 551.820312 118.75 535.25 118.75 C 494.410156 118.75 405.257812 118.75 405.257812 118.75 C 399.738281 118.75 395.257812 123.230469 395.257812 128.75 C 395.257812 134.269531 399.738281 138.75 405.257812 138.75 C 405.257812 138.75 494.410156 138.75 535.25 138.75 C 540.769531 138.75 545.25 143.230469 545.25 148.75 C 545.25 148.75 545.25 248.746094 545.25 248.746094 C 545.25 251.394531 544.199219 253.945312 542.320312 255.8125 C 540.449219 257.695312 537.898438 258.742188 535.25 258.742188 L 293.933594 258.742188 L 293.933594 138.75 L 325.261719 138.75 C 330.78125 138.75 335.261719 134.269531 335.261719 128.75 C 335.261719 123.230469 330.78125 118.75 325.261719 118.75 L 205.269531 118.75 C 188.699219 118.75 175.269531 132.179688 175.269531 148.75 L 175.269531 188.746094 C 175.269531 188.746094 154.011719 188.746094 154.011719 188.746094 C 149.5625 171.507812 133.890625 158.75 115.273438 158.75 C 93.195312 158.75 75.273438 176.667969 75.273438 198.746094 C 75.273438 217.394531 88.0625 233.085938 105.351562 237.503906 Z M 595.246094 198.746094 C 595.246094 187.707031 604.207031 178.75 615.246094 178.75 C 626.285156 178.75 635.246094 187.707031 635.246094 198.746094 C 635.246094 209.785156 626.285156 218.746094 615.246094 218.746094 C 604.207031 218.746094 595.246094 209.785156 595.246094 198.746094 Z M 615.246094 598.726562 C 626.285156 598.726562 635.246094 607.683594 635.246094 618.722656 C 635.246094 629.765625 626.285156 638.722656 615.246094 638.722656 C 604.207031 638.722656 595.246094 629.765625 595.246094 618.722656 C 595.246094 607.683594 604.207031 598.726562 615.246094 598.726562 Z M 154.011719 208.746094 C 150.378906 222.816406 139.28125 233.90625 125.191406 237.503906 C 125.242188 237.90625 125.273438 238.324219 125.273438 238.746094 L 125.273438 579.988281 C 139.320312 583.605469 150.390625 594.675781 154.011719 608.726562 L 175.269531 608.726562 C 175.269531 608.726562 175.269531 568.726562 175.269531 568.726562 C 175.269531 560.769531 178.429688 553.136719 184.058594 547.519531 C 189.679688 541.890625 197.308594 538.730469 205.269531 538.730469 L 535.25 538.730469 C 543.210938 538.730469 550.839844 541.890625 556.457031 547.519531 C 562.089844 553.136719 565.246094 560.769531 565.246094 568.726562 L 565.246094 608.726562 L 576.507812 608.726562 C 580.128906 594.675781 591.195312 583.605469 605.246094 579.988281 L 605.246094 237.484375 C 591.195312 233.867188 580.128906 222.796875 576.507812 208.746094 L 565.246094 208.746094 L 565.246094 248.746094 C 565.246094 256.703125 562.089844 264.332031 556.457031 269.953125 C 550.839844 275.582031 543.210938 278.742188 535.25 278.742188 L 205.269531 278.742188 C 197.308594 278.742188 189.679688 275.582031 184.058594 269.953125 C 178.429688 264.332031 175.269531 256.703125 175.269531 248.746094 L 175.269531 208.746094 Z M 515.25 648.722656 L 515.25 588.726562 C 515.25 583.207031 510.769531 578.726562 505.25 578.726562 C 499.730469 578.726562 495.25 583.207031 495.25 588.726562 L 495.25 648.722656 C 495.25 654.242188 499.730469 658.722656 505.25 658.722656 C 510.769531 658.722656 515.25 654.242188 515.25 648.722656 Z M 515.25 228.746094 L 515.25 168.75 C 515.25 163.230469 510.769531 158.75 505.25 158.75 C 499.730469 158.75 495.25 163.230469 495.25 168.75 L 495.25 228.746094 C 495.25 234.265625 499.730469 238.746094 505.25 238.746094 C 510.769531 238.746094 515.25 234.265625 515.25 228.746094 Z M 475.253906 391.695312 L 495.230469 391.738281 C 499.070312 391.746094 502.570312 389.558594 504.25 386.097656 C 505.921875 382.648438 505.472656 378.539062 503.082031 375.527344 L 453.085938 312.519531 C 451.195312 310.132812 448.304688 308.742188 445.253906 308.742188 C 442.203125 308.742188 439.316406 310.132812 437.425781 312.519531 L 387.425781 375.527344 C 385.039062 378.539062 384.585938 382.648438 386.257812 386.097656 C 387.9375 389.558594 391.4375 391.746094 395.277344 391.738281 L 415.257812 391.695312 C 415.257812 391.695312 415.257812 498.730469 415.257812 498.730469 C 415.257812 504.25 419.734375 508.730469 425.253906 508.730469 L 465.253906 508.730469 C 470.773438 508.730469 475.253906 504.25 475.253906 498.730469 Z M 465.273438 371.667969 C 462.625 371.65625 460.074219 372.707031 458.195312 374.585938 C 456.3125 376.46875 455.253906 379.007812 455.253906 381.667969 L 455.253906 488.730469 C 455.253906 488.730469 435.253906 488.730469 435.253906 488.730469 C 435.253906 488.730469 435.253906 381.667969 435.253906 381.667969 C 435.253906 379.007812 434.195312 376.46875 432.316406 374.585938 C 430.433594 372.707031 427.886719 371.65625 425.234375 371.667969 L 415.996094 371.6875 C 415.996094 371.6875 445.253906 334.828125 445.253906 334.828125 C 445.253906 334.828125 474.511719 371.6875 474.511719 371.6875 C 474.511719 371.6875 465.273438 371.667969 465.273438 371.667969 Z M 385.257812 198.746094 C 385.257812 220.828125 403.175781 238.746094 425.253906 238.746094 C 447.335938 238.746094 465.253906 220.828125 465.253906 198.746094 C 465.253906 176.667969 447.335938 158.75 425.253906 158.75 C 403.175781 158.75 385.257812 176.667969 385.257812 198.746094 Z M 385.257812 618.722656 C 385.257812 640.804688 403.175781 658.722656 425.253906 658.722656 C 447.335938 658.722656 465.253906 640.804688 465.253906 618.722656 C 465.253906 596.644531 447.335938 578.726562 425.253906 578.726562 C 403.175781 578.726562 385.257812 596.644531 385.257812 618.722656 Z M 405.257812 198.746094 C 405.257812 187.707031 414.214844 178.75 425.253906 178.75 C 436.296875 178.75 445.253906 187.707031 445.253906 198.746094 C 445.253906 209.785156 436.296875 218.746094 425.253906 218.746094 C 414.214844 218.746094 405.257812 209.785156 405.257812 198.746094 Z M 405.257812 618.722656 C 405.257812 607.683594 414.214844 598.726562 425.253906 598.726562 C 436.296875 598.726562 445.253906 607.683594 445.253906 618.722656 C 445.253906 629.765625 436.296875 638.722656 425.253906 638.722656 C 414.214844 638.722656 405.257812 629.765625 405.257812 618.722656 Z M 355.257812 698.71875 L 375.257812 698.71875 C 380.777344 698.71875 385.257812 694.242188 385.257812 688.71875 C 385.257812 683.199219 380.777344 678.722656 375.257812 678.722656 L 355.257812 678.722656 C 349.738281 678.722656 345.261719 683.199219 345.261719 688.71875 C 345.261719 694.242188 349.738281 698.71875 355.257812 698.71875 Z M 355.257812 138.75 L 375.257812 138.75 C 380.777344 138.75 385.257812 134.269531 385.257812 128.75 C 385.257812 123.230469 380.777344 118.75 375.257812 118.75 L 355.257812 118.75 C 349.738281 118.75 345.261719 123.230469 345.261719 128.75 C 345.261719 134.269531 349.738281 138.75 355.257812 138.75 Z M 255.265625 438.484375 L 235.296875 438.433594 C 231.546875 438.425781 228.105469 440.515625 226.386719 443.84375 C 224.65625 447.175781 224.945312 451.183594 227.125 454.242188 L 277.125 524.320312 C 279.003906 526.949219 282.035156 528.507812 285.261719 528.507812 C 288.492188 528.507812 291.523438 526.949219 293.402344 524.320312 L 343.398438 454.242188 C 345.578125 451.183594 345.871094 447.175781 344.140625 443.84375 C 342.421875 440.515625 338.980469 438.425781 335.230469 438.433594 L 315.261719 438.484375 C 315.261719 438.484375 315.261719 318.742188 315.261719 318.742188 C 315.261719 313.222656 310.78125 308.742188 305.261719 308.742188 L 265.265625 308.742188 C 259.746094 308.742188 255.265625 313.222656 255.265625 318.742188 Z M 265.234375 458.511719 C 267.894531 458.523438 270.445312 457.472656 272.324219 455.59375 C 274.203125 453.714844 275.265625 451.171875 275.265625 448.515625 L 275.265625 328.742188 C 275.265625 328.742188 295.261719 328.742188 295.261719 328.742188 C 295.261719 328.742188 295.261719 448.515625 295.261719 448.515625 C 295.261719 451.171875 296.324219 453.714844 298.203125 455.59375 C 300.082031 457.472656 302.632812 458.523438 305.292969 458.511719 L 315.800781 458.484375 C 315.800781 458.484375 285.261719 501.289062 285.261719 501.289062 C 285.261719 501.289062 254.726562 458.484375 254.726562 458.484375 C 254.726562 458.484375 265.234375 458.511719 265.234375 458.511719 Z M 244.59375 258.742188 L 273.933594 258.742188 L 273.933594 138.75 L 244.59375 138.75 Z M 244.59375 678.722656 L 273.933594 678.722656 L 273.933594 558.726562 L 244.59375 558.726562 Z M 224.597656 138.75 L 205.269531 138.75 C 199.746094 138.75 195.269531 143.230469 195.269531 148.75 C 195.269531 148.75 195.269531 248.746094 195.269531 248.746094 C 195.269531 251.394531 196.316406 253.945312 198.199219 255.8125 C 200.066406 257.695312 202.617188 258.742188 205.269531 258.742188 L 224.597656 258.742188 Z M 224.597656 558.726562 L 205.269531 558.726562 C 202.617188 558.726562 200.066406 559.777344 198.199219 561.65625 C 196.316406 563.527344 195.269531 566.078125 195.269531 568.726562 C 195.269531 568.726562 195.269531 668.722656 195.269531 668.722656 C 195.269531 674.242188 199.746094 678.722656 205.269531 678.722656 L 224.597656 678.722656 Z M 115.273438 598.726562 C 126.3125 598.726562 135.269531 607.683594 135.269531 618.722656 C 135.269531 629.765625 126.3125 638.722656 115.273438 638.722656 C 104.234375 638.722656 95.273438 629.765625 95.273438 618.722656 C 95.273438 607.683594 104.234375 598.726562 115.273438 598.726562 Z M 135.269531 198.746094 C 135.269531 209.785156 126.3125 218.746094 115.273438 218.746094 C 104.234375 218.746094 95.273438 209.785156 95.273438 198.746094 C 95.273438 187.707031 104.234375 178.75 115.273438 178.75 C 126.3125 178.75 135.269531 187.707031 135.269531 198.746094 Z M 135.269531 198.746094 " fill-opacity="1" fill-rule="evenodd"/></g></svg>